<?xml version="1.0" encoding="UTF-8" standalone="no"?>
<!-- Created with Inkscape (http://www.inkscape.org/) -->

<svg
   xmlns:dc="http://purl.org/dc/elements/1.1/"
   xmlns:cc="http://creativecommons.org/ns#"
   xmlns:rdf="http://www.w3.org/1999/02/22-rdf-syntax-ns#"
   xmlns:svg="http://www.w3.org/2000/svg"
   xmlns="http://www.w3.org/2000/svg"
   xmlns:sodipodi="http://sodipodi.sourceforge.net/DTD/sodipodi-0.dtd"
   xmlns:inkscape="http://www.inkscape.org/namespaces/inkscape"
   width="640"
   height="480"
   id="svg2"
   version="1.1"
   inkscape:version="0.48.4 r9939"
   sodipodi:docname="New document 1">
  <defs
     id="defs4" />
  <sodipodi:namedview
     id="base"
     pagecolor="#000000"
     bordercolor="#666666"
     borderopacity="1.0"
     inkscape:pageopacity="1"
     inkscape:pageshadow="2"
     inkscape:zoom="0.98994949"
     inkscape:cx="362.76314"
     inkscape:cy="233.73511"
     inkscape:document-units="px"
     inkscape:current-layer="layer1"
     showgrid="false"
     width="640px"
     inkscape:window-width="1366"
     inkscape:window-height="719"
     inkscape:window-x="0"
     inkscape:window-y="24"
     inkscape:window-maximized="1" />
  <metadata
     id="metadata7">
    <rdf:RDF>
      <cc:Work
         rdf:about="">
        <dc:format>image/svg+xml</dc:format>
        <dc:type
           rdf:resource="http://purl.org/dc/dcmitype/StillImage" />
        <dc:title></dc:title>
      </cc:Work>
    </rdf:RDF>
  </metadata>
  <g
     inkscape:label="Layer 1"
     inkscape:groupmode="layer"
     id="layer1"
     transform="translate(0,-572.36218)">
    <g
       style="font-size:7.836586px;font-style:normal;font-variant:normal;font-weight:bold;font-stretch:condensed;line-height:125%;letter-spacing:0px;word-spacing:0px;fill:#ffffff;fill-opacity:1;stroke:none;font-family:Liberation Sans Narrow;-inkscape-font-specification:Liberation Sans Narrow Bold Condensed"
       id="text2985"
       transform="translate(2.0203051,-6.0609153)">
      <path
         d="m 119.59739,606.71279 c 2.00615,7e-5 4.45116,-0.2507 7.33505,-0.75232 2.94652,-0.56415 5.36019,-0.84627 7.241,-0.84635 0.81497,8e-5 1.3792,0.0314 1.69271,0.094 2.1942,0.31354 3.76151,0.53296 4.70195,0.65827 0.94034,0.12547 2.22554,0.37624 3.8556,0.75232 1.69265,0.31353 2.88381,0.65834 3.57348,1.03443 0.75226,0.37623 1.62996,0.90911 2.63309,1.59866 1.00303,0.627 1.724,1.37931 2.1629,2.25694 0.43879,0.81507 0.81495,1.8495 1.12847,3.10328 0.31341,1.25392 0.47014,2.66451 0.47019,4.23176 -5e-5,2.75854 -0.37621,5.6424 -1.12846,8.65159 -0.75237,2.94661 -1.50468,4.41989 -2.25694,4.41984 -0.81506,5e-5 -1.22256,0.59563 -1.22251,1.78674 -5e-5,1.44198 -1.88083,3.88699 -5.64234,7.33504 -3.7616,3.44814 -6.70816,5.39161 -8.83967,5.83042 -2.57043,0.68966 -4.04371,1.37927 -4.41983,2.06886 -0.43888,0.81504 -2.4764,1.22254 -6.11254,1.22251 l -5.5483,0 0.94039,16.92702 c 0.25075,4.32581 0.37613,8.11871 0.37615,11.37873 -2e-5,4.01233 -0.34483,6.52003 -1.03443,7.52312 -1.06579,1.25385 -1.97484,1.88077 -2.72713,1.88078 -1.37925,-10e-6 -2.25695,-1.41059 -2.63309,-4.23176 -0.62694,-4.82733 -1.4106,-13.98045 -2.35098,-27.45939 C 110.85175,642.69839 110.38156,633.6393 110.38157,629 l 0,-10.06218 -2.82117,1.97482 c -1.25387,0.87776 -2.35099,1.31661 -3.29137,1.31655 -0.37616,6e-5 -0.78366,-0.21937 -1.22251,-0.65828 -0.37616,-0.43879 -0.56424,-0.97167 -0.56423,-1.59866 -1e-5,-1.75533 1.78673,-4.51381 5.36022,-8.27544 2.00616,-2.13148 3.51078,-3.54206 4.51388,-4.23175 1.00306,-0.68955 2.03749,-1.03436 3.10329,-1.03443 0.31344,7e-5 0.84633,0.0628 1.59866,0.18808 0.75229,0.0628 1.59864,0.0941 2.53905,0.094 m 20.50051,7.05292 c -3.32275,-0.75224 -5.61103,-1.1284 -6.86485,-1.12847 -1.25389,7e-5 -4.13775,0.47027 -8.65159,1.41059 -3.32273,0.68969 -5.39159,1.53604 -6.20657,2.53905 -0.81503,1.00315 -1.22253,3.29143 -1.22251,6.86485 -2e-5,3.63623 0.2194,7.58587 0.65827,11.84892 0.43883,4.26315 0.90902,6.67681 1.41059,7.24101 0.25075,0.3135 0.97171,0.47023 2.16289,0.47019 2.00614,4e-5 4.70193,-0.43881 8.08736,-1.31654 3.38537,-0.94035 6.1125,-1.97478 8.1814,-3.10329 1.25381,-0.68958 2.31958,-1.50458 3.19732,-2.44502 0.87766,-1.00303 1.34785,-1.88073 1.41059,-2.63309 0.18803,-1.37919 1.28515,-3.38535 3.29137,-6.0185 2.0688,-2.69573 3.10323,-4.88997 3.10328,-6.58273 -5e-5,-3.51073 -2.85256,-5.89305 -8.55755,-7.14697"
         style="font-size:94.03903198px;font-weight:normal;font-stretch:normal;fill:#ffffff;font-family:Purisa;-inkscape-font-specification:Purisa"
         id="path3182"
         inkscape:connector-curvature="0" />
      <path
         d="m 193.26669,634.64238 c -2.8839,4e-5 -5.95583,0.59562 -9.21583,1.78674 -3.19734,1.1912 -6.04986,2.41371 -8.55755,3.66752 -2.50772,1.1912 -4.32581,1.78678 -5.45426,1.78674 -0.75232,4e-5 -1.12848,-0.31342 -1.12847,-0.94039 -1e-5,-0.87765 0.18807,-1.62996 0.56423,-2.25693 0.37615,-0.62689 1.06577,-1.22247 2.06886,-1.78675 1.00307,-0.56418 1.94346,-1.03438 2.82117,-1.41058 0.94038,-0.37611 2.41365,-0.909 4.41984,-1.59866 2.00614,-0.75227 3.73019,-1.44189 5.17215,-2.06886 3.38537,-1.3165 6.23789,-1.97477 8.55755,-1.97482 4.13768,5e-5 7.36635,2.25698 9.68602,6.77081 1.12842,2.19428 1.78669,4.23179 1.97482,6.11253 0.18803,1.81813 0.34476,6.99027 0.47019,15.51645 0.0626,4.76466 0.15669,8.77699 0.28212,12.03699 0.12534,3.19734 0.25072,5.23485 0.37616,6.11254 l 0.18807,1.22251 c -4e-5,0.8777 -0.40754,1.81809 -1.2225,2.82117 -0.75236,1.00308 -1.31659,1.50462 -1.69271,1.50462 -1.25389,0 -2.22563,-1.97482 -2.91521,-5.92446 -0.68966,-4.01232 -1.06581,-6.01848 -1.12846,-6.0185 -0.18812,2e-5 -0.47024,0.34482 -0.84636,1.03443 -1.25389,2.06887 -3.79294,4.35715 -7.61716,6.86485 -3.76159,2.44502 -6.92756,3.66752 -9.49794,3.66752 -1.56734,0 -3.41677,-0.28211 -5.5483,-0.84635 -2.06888,-0.62692 -3.5735,-1.28519 -4.51388,-1.97482 -0.68963,-0.56423 -1.28521,-1.69269 -1.78674,-3.3854 -0.43886,-1.6927 -0.65828,-3.41674 -0.65827,-5.17215 -1e-5,-2.63308 0.68961,-4.89001 2.06886,-6.77081 1.44192,-1.94345 3.98097,-3.91827 7.61716,-5.92446 3.94962,-2.3196 7.77387,-3.47941 11.47276,-3.47944 1.50459,3e-5 2.75845,0.2508 3.76156,0.75231 1.00305,0.50157 1.75536,1.03446 2.25694,1.59866 0.5015,0.50157 0.90901,0.75234 1.22251,0.75232 0.25073,2e-5 0.84631,0.34483 1.78674,1.03443 0.94035,0.62695 1.44189,0.94041 1.50462,0.94039 0.25073,2e-5 0.37612,-0.6896 0.37616,-2.06886 -4e-5,-8.40079 -0.59562,-14.2312 -1.78674,-17.49126 -1.12851,-3.25998 -2.82121,-4.88999 -5.07811,-4.89003 m 4.23176,29.1521 c -4e-5,-0.25075 -0.0941,-0.53287 -0.28212,-0.84635 -0.12542,-0.37614 -0.43889,-0.78364 -0.94039,-1.22251 -0.43889,-0.50152 -1.03447,-0.94037 -1.78674,-1.31655 -0.68966,-0.43882 -1.66139,-0.78363 -2.91521,-1.03443 -1.25389,-0.31344 -2.66447,-0.47017 -4.23176,-0.47019 -2.69581,2e-5 -5.07813,0.47022 -7.14697,1.41058 -2.00618,0.94041 -3.5108,2.13157 -4.51387,3.57349 -1.0031,1.44194 -1.75541,2.78984 -2.25694,4.04368 -0.43886,1.19117 -0.65828,2.25694 -0.65827,3.19732 -1e-5,1.56733 0.12537,2.6331 0.37616,3.19733 0.31345,0.56424 1.03441,1.15982 2.16289,1.78674 1.37923,0.68963 2.63308,1.03443 3.76157,1.03443 2.13152,0 4.76462,-0.75231 7.89927,-2.25694 3.1973,-1.56731 4.79596,-2.69577 4.79599,-3.3854 -3e-5,-0.50153 0.94036,-1.69269 2.82118,-3.57348 1.94343,-1.94346 2.91517,-3.3227 2.91521,-4.13772"
         style="font-size:94.03903198px;font-weight:normal;font-stretch:normal;fill:#ffffff;font-family:Purisa;-inkscape-font-specification:Purisa"
         id="path3184"
         inkscape:connector-curvature="0" />
      <path
         d="m 222.29096,627.87157 c 0.87769,-0.75226 1.63,-1.12842 2.25694,-1.12847 1.31653,5e-5 2.25692,2.10026 2.82117,6.30061 0.62691,4.13777 1.19114,12.13108 1.6927,23.97996 0.25075,5.51697 0.37614,10.50104 0.37616,14.9522 -2e-5,4.45119 -0.1881,6.8962 -0.56424,7.33505 -0.75233,0.94039 -1.69272,1.41058 -2.82117,1.41058 -1.56733,0 -2.53906,-0.65827 -2.91521,-1.97482 -0.31347,-0.815 -0.78367,-7.14695 -1.41058,-18.99588 -0.62694,-11.91158 -0.9404,-20.187 -0.94039,-24.8263 -1e-5,-3.8869 0.50153,-6.23787 1.50462,-7.05293 m -0.56423,-22.09917 c -1e-5,-0.87763 0.3448,-1.75532 1.03443,-2.6331 0.7523,-0.87762 1.41057,-1.31646 1.97482,-1.31654 0.62691,8e-5 1.47326,0.43892 2.53905,1.31654 1.12845,0.81508 1.69268,1.88086 1.6927,3.19733 -2e-5,0.94046 -0.28213,1.75547 -0.84635,2.44501 -0.50156,0.627 -1.19118,0.94047 -2.06886,0.94039 -1.00309,8e-5 -1.97483,-0.37608 -2.91521,-1.12846 -0.9404,-0.75224 -1.41059,-1.69263 -1.41058,-2.82117"
         style="font-size:94.03903198px;font-weight:normal;font-stretch:normal;fill:#ffffff;font-family:Purisa;-inkscape-font-specification:Purisa"
         id="path3186"
         inkscape:connector-curvature="0" />
      <path
         d="m 249.50056,630.5987 c -1e-5,-2.1315 0.62691,-3.19727 1.88078,-3.19733 0.81499,6e-5 1.41057,0.94045 1.78674,2.82117 0.37614,1.81814 1.06576,7.2724 2.06886,16.3628 1.25384,10.15624 1.91211,15.29703 1.97482,15.4224 0.0627,0.0627 0.31344,-0.53287 0.75231,-1.78675 0.50152,-1.31652 1.1598,-3.25999 1.97482,-5.83042 1.25383,-4.13768 2.31961,-7.11558 3.19733,-8.9337 0.87767,-1.88075 2.44499,-4.45114 4.70195,-7.7112 4.57653,-6.33192 8.11867,-9.49789 10.62641,-9.49795 1.62997,6e-5 3.16594,1.09718 4.60791,3.29137 1.94343,2.88391 3.13459,5.73643 3.57349,8.55755 0.4388,2.82121 0.75226,9.49798 0.94039,20.03032 0.12533,6.77082 0.18803,10.78315 0.18808,12.03699 -5e-5,3.13464 -0.12544,5.42292 -0.37616,6.86485 -0.18813,1.37924 -0.50159,2.22559 -0.94039,2.53905 -0.37621,0.37616 -1.06582,0.59558 -2.06886,0.65828 -0.56428,0 -0.94044,-0.25077 -1.12847,-0.75231 -0.18812,-0.43885 -0.28216,-1.50463 -0.28211,-3.19733 -5e-5,-0.94039 0.0626,-2.94655 0.18807,-6.0185 0.12534,-3.13462 0.18804,-5.76771 0.18808,-7.89928 -4e-5,-5.32885 -0.21947,-10.53234 -0.65827,-15.61048 -0.3762,-5.14076 -0.8464,-8.43212 -1.41059,-9.8741 -0.3135,-0.81496 -0.81505,-1.66131 -1.50462,-2.53905 -0.68966,-0.87765 -1.34794,-1.3165 -1.97482,-1.31655 -1.31659,5e-5 -3.41679,2.25699 -6.30062,6.77081 -2.88389,4.45122 -5.36025,9.15317 -7.42908,14.10586 -1.9435,4.51389 -3.26004,7.99333 -3.94964,10.43833 -0.62695,2.38234 -1.15984,5.64235 -1.59866,9.78006 -0.68964,6.39465 -1.19118,9.59198 -1.50463,9.59198 -0.50156,0 -1.22252,-0.53289 -2.1629,-1.59866 -0.68963,-0.68962 -1.15983,-2.1629 -1.41058,-4.41984 -0.25079,-2.31962 -0.5956,-6.86484 -1.03443,-13.63566 -0.43886,-6.83348 -1.03444,-13.72966 -1.78674,-20.68858 -0.75233,-7.20962 -1.12848,-12.13099 -1.12847,-14.76413"
         style="font-size:94.03903198px;font-weight:normal;font-stretch:normal;fill:#ffffff;font-family:Purisa;-inkscape-font-specification:Purisa"
         id="path3188"
         inkscape:connector-curvature="0" />
      <path
         d="m 362.03001,622.98154 c -1e-5,-1.06572 1.41058,-3.19727 4.23176,-6.39466 2.82115,-3.19726 4.60789,-4.79592 5.36022,-4.79599 2.445,7e-5 7.67983,0.50161 15.70452,1.50463 8.02462,1.00315 12.78926,1.75546 14.29393,2.25693 4.20036,1.19123 6.30057,4.04374 6.30062,8.55756 -5e-5,2.1316 -0.53294,4.32584 -1.59867,6.58273 -1.00313,2.19429 -2.1316,4.04372 -3.3854,5.5483 -1.2539,1.44198 -2.41371,2.78987 -3.47945,4.04368 -1.00312,1.25389 -1.50466,2.03755 -1.50462,2.35098 -4e-5,0.43888 -1.81813,1.84947 -5.45426,4.23175 -3.57352,2.31966 -6.7395,4.20044 -9.49795,5.64234 -2.25696,1.25389 -3.38542,2.03754 -3.3854,2.35098 -2e-5,0.12541 1.15979,0.59561 3.47944,1.41059 2.3823,0.75233 5.23481,1.78676 8.55755,3.10328 3.32268,1.31657 5.89308,2.60177 7.71121,3.8556 2.88381,2.00619 4.63921,3.00927 5.26618,3.00925 0.87765,0.0627 2.28823,1.12849 4.23176,3.19733 2.00611,2.00618 3.00919,3.44811 3.00925,4.3258 -6e-5,1.56732 -0.56429,2.35098 -1.69271,2.35097 -1.00313,10e-6 -2.69583,-0.62692 -5.0781,-1.88078 -2.31968,-1.25384 -5.36027,-2.88385 -9.12179,-4.89003 -3.6989,-2.06884 -7.20969,-3.7302 -10.53237,-4.98407 l -7.33505,-2.91521 0.37616,11.00257 c 0.0627,1.69271 0.094,3.66753 0.094,5.92446 -2e-5,0.12539 -2e-5,0.31346 0,0.56423 -2e-5,1.19116 -0.0314,2.03751 -0.094,2.53906 -0.0627,0.56423 -0.28214,1.06577 -0.65827,1.50462 -0.37618,0.50154 -0.97176,0.75231 -1.78674,0.75231 -2.38234,0 -3.5735,-3.82425 -3.57349,-11.47276 -1e-5,-8.02465 -1.28521,-12.63255 -3.8556,-13.82374 -1.88079,-0.81498 -2.82118,-1.94345 -2.82117,-3.3854 -10e-6,-1.31652 0.90903,-2.41364 2.72713,-3.29137 l 3.10329,-1.41058 -0.75231,-10.72045 c -0.37617,-5.70499 -0.78367,-9.65463 -1.22251,-11.84892 -0.37617,-2.25688 -0.90906,-3.38535 -1.59866,-3.38541 -0.18809,6e-5 -0.56425,0.21948 -1.12847,0.65828 -0.56424,0.4389 -1.25386,0.65833 -2.06886,0.65827 -0.75232,6e-5 -1.41059,-0.25071 -1.97482,-0.75231 -0.56424,-0.50149 -0.84636,-1.15976 -0.84635,-1.97482 m 40.34274,0.47019 c -4e-5,-0.25071 -0.0627,-0.43879 -0.18807,-0.56423 -0.12543,-0.12533 -0.72101,-0.3761 -1.78675,-0.75231 -1.00312,-0.3761 -2.66448,-0.87764 -4.98406,-1.50463 -4.26314,-1.1911 -8.58893,-1.78668 -12.97739,-1.78674 l -6.77081,0 0.65827,5.07811 c 0.18806,1.25391 0.47018,3.91834 0.84635,7.99332 0.37614,4.01237 0.72095,7.58585 1.03443,10.72045 0.31344,3.07197 0.53287,4.60794 0.65828,4.60791 0.87767,3e-5 3.1973,-1.0344 6.95888,-3.10329 3.76153,-2.06882 6.39462,-3.79287 7.89928,-5.17215 1.62997,-1.44188 3.47941,-4.04363 5.54831,-7.80524 2.06881,-3.7615 3.10324,-6.3319 3.10328,-7.7112"
         style="font-size:94.03903198px;font-weight:normal;font-stretch:normal;fill:#ffffff;font-family:Purisa;-inkscape-font-specification:Purisa"
         id="path3190"
         inkscape:connector-curvature="0" />
      <path
         d="m 423.69319,648.37208 c -1e-5,-11.72349 0.87768,-17.58525 2.63309,-17.5853 0.31345,5e-5 0.62691,0.0627 0.94039,0.18808 0.37614,0.12543 0.81499,0.59563 1.31654,1.41058 0.50153,0.75236 0.7523,1.81814 0.75232,3.19733 -2e-5,0.62697 -0.0627,1.69275 -0.18808,3.19733 -0.1254,1.44197 -0.18809,3.07198 -0.18808,4.89003 -10e-6,5.07814 0.28211,11.25336 0.84635,18.52568 0.56422,7.27237 1.1598,12.03701 1.78674,14.29394 0.62692,2.44501 1.69269,3.66752 3.19733,3.66752 1.44191,0 3.63616,-1.2852 6.58273,-3.8556 3.63615,-3.19732 7.11559,-8.18138 10.43834,-14.95221 3.38536,-6.77078 5.73634,-13.54158 7.05292,-20.31243 1.25381,-6.64538 2.28824,-10.18751 3.10329,-10.62641 0.62688,-0.4388 1.28515,-0.65822 1.97482,-0.65827 1.50458,5e-5 2.25689,0.87775 2.25694,2.63309 -5e-5,0.87775 -0.47025,4.54527 -1.41059,11.00257 -0.87774,6.45738 -1.31659,11.09663 -1.31654,13.91777 -5e-5,3.94966 0.78361,8.87104 2.35097,14.76413 1.62996,5.83043 2.44496,9.15314 2.44502,9.96814 -6e-5,0.62693 -0.25083,1.12847 -0.75232,1.50462 -0.50159,0.37616 -0.94044,0.59558 -1.31654,0.65828 -0.31352,0.12538 -0.56429,0.18807 -0.75231,0.18808 -1.12852,-1e-5 -2.25699,-1.59867 -3.38541,-4.79599 -1.06582,-3.19733 -2.03756,-6.39465 -2.91521,-9.59199 -0.81505,-3.19731 -1.53601,-4.79597 -2.1629,-4.79599 -0.12542,2e-5 -0.25081,0.0314 -0.37615,0.094 -0.12543,0.0627 -0.28216,0.1881 -0.4702,0.37616 -0.12542,0.1254 -0.25081,0.28213 -0.37615,0.47019 -0.12543,0.1881 -0.31351,0.43887 -0.56424,0.75232 -0.18812,0.31347 -0.37619,0.59559 -0.56423,0.84635 -0.12543,0.25078 -0.34485,0.62694 -0.65828,1.12847 -0.3135,0.50155 -0.56427,0.90905 -0.75231,1.2225 -2.75851,4.32581 -5.83045,7.93063 -9.21582,10.81449 -3.32274,2.88386 -6.14391,4.32579 -8.46352,4.3258 -2.63311,-10e-6 -4.60792,-0.59559 -5.92446,-1.78674 -1.31655,-1.12847 -2.38233,-3.19733 -3.19732,-6.20658 -0.75232,-3.00924 -1.44194,-7.77388 -2.06886,-14.29393 -0.43886,-4.1377 -0.65828,-8.99638 -0.65827,-14.57605"
         style="font-size:94.03903198px;font-weight:normal;font-stretch:normal;fill:#ffffff;font-family:Purisa;-inkscape-font-specification:Purisa"
         id="path3192"
         inkscape:connector-curvature="0" />
      <path
         d="m 485.33282,630.5987 c -1e-5,-2.1315 0.62691,-3.19727 1.88078,-3.19733 0.81499,6e-5 1.41057,0.94045 1.78674,2.82117 0.37614,1.81814 1.06576,7.2724 2.06886,16.3628 1.25384,10.15624 1.91211,15.29703 1.97482,15.4224 0.0627,0.0627 0.31344,-0.53287 0.75231,-1.78675 0.50152,-1.31652 1.1598,-3.25999 1.97482,-5.83042 1.25383,-4.13768 2.31961,-7.11558 3.19733,-8.9337 0.87767,-1.88075 2.44499,-4.45114 4.70195,-7.7112 4.57653,-6.33192 8.11867,-9.49789 10.62641,-9.49795 1.62997,6e-5 3.16594,1.09718 4.60791,3.29137 1.94343,2.88391 3.13459,5.73643 3.57349,8.55755 0.4388,2.82121 0.75226,9.49798 0.94039,20.03032 0.12533,6.77082 0.18803,10.78315 0.18808,12.03699 -5e-5,3.13464 -0.12544,5.42292 -0.37616,6.86485 -0.18813,1.37924 -0.50159,2.22559 -0.94039,2.53905 -0.3762,0.37616 -1.06582,0.59558 -2.06886,0.65828 -0.56428,0 -0.94044,-0.25077 -1.12847,-0.75231 -0.18812,-0.43885 -0.28216,-1.50463 -0.28211,-3.19733 -5e-5,-0.94039 0.0626,-2.94655 0.18807,-6.0185 0.12534,-3.13462 0.18804,-5.76771 0.18808,-7.89928 -4e-5,-5.32885 -0.21947,-10.53234 -0.65827,-15.61048 -0.3762,-5.14076 -0.8464,-8.43212 -1.41059,-9.8741 -0.3135,-0.81496 -0.81504,-1.66131 -1.50462,-2.53905 -0.68966,-0.87765 -1.34794,-1.3165 -1.97482,-1.31655 -1.31659,5e-5 -3.41679,2.25699 -6.30062,6.77081 -2.88389,4.45122 -5.36025,9.15317 -7.42908,14.10586 -1.9435,4.51389 -3.26004,7.99333 -3.94964,10.43833 -0.62695,2.38234 -1.15984,5.64235 -1.59866,9.78006 -0.68964,6.39465 -1.19118,9.59198 -1.50463,9.59198 -0.50156,0 -1.22252,-0.53289 -2.1629,-1.59866 -0.68963,-0.68962 -1.15983,-2.1629 -1.41058,-4.41984 -0.25079,-2.31962 -0.5956,-6.86484 -1.03443,-13.63566 -0.43886,-6.83348 -1.03444,-13.72966 -1.78674,-20.68858 -0.75233,-7.20962 -1.12848,-12.13099 -1.12847,-14.76413"
         style="font-size:94.03903198px;font-weight:normal;font-stretch:normal;fill:#ffffff;font-family:Purisa;-inkscape-font-specification:Purisa"
         id="path3194"
         inkscape:connector-curvature="0" />
    </g>
    <g
       id="cardboard_gyro"
       inkscape:label="#g3217">
      <path
         inkscape:connector-curvature="0"
         id="path3092"
         d="m 119.62455,743.98886 c -0.2604,0.0375 -0.48676,0.0818 -0.6875,0.125 l -1,1.03125 -0.96875,0.9375 c -0.0694,0.12676 -0.13364,0.2519 -0.1875,0.375 l 0,28.90625 0,28.96875 c 0.0486,0.111 0.0949,0.22953 0.15625,0.34375 l 0.71875,0.75 c 0.47706,0.51331 1.18085,1.06089 1.5625,1.21875 0.38164,0.15787 9.06619,0.3004 19.3125,0.3125 13.34744,-1e-4 17.46849,-0.003 18.9375,-0.25 l 0.5625,-0.53125 c 0.6783,-0.61564 1.25997,-2.24639 2.78125,-7.71875 3.12318,-11.23483 5.18542,-14.45775 9.5,-14.96875 3.67588,-0.43535 6.42633,1.18324 8.28125,4.84375 1.25206,2.47083 1.98992,4.68478 3.8125,11.53125 0.97901,3.67764 1.60866,5.57147 2.09375,6.28125 0.77072,0.49286 2.31949,0.66145 5.0625,0.75 2.77006,0.0431 7.00362,0.039 14.71875,0 l 18.78125,-0.0937 c 0.0184,-0.005 0.0445,0.005 0.0625,0 l 0.0625,-0.0312 1.0625,-1.09375 0.96875,-0.96875 c 0.0694,-0.12676 0.13364,-0.2519 0.1875,-0.375 l 0,-28.9375 0,-28.9375 c -0.0539,-0.1231 -0.11809,-0.24824 -0.1875,-0.375 l -0.96875,-0.9375 -1,-1.03125 c -0.20325,-0.0438 -0.45414,-0.087 -0.71875,-0.125 l -51.4375,0 -51.46875,0 z m 75.9375,19.90625 c 4.07293,0.0272 8.17592,2.22251 10.3125,6.5625 0.98392,1.99863 1.127,2.686 1.125,4.9375 -0.002,2.08848 -0.17633,3.0019 -0.90625,4.5625 -1.18597,2.53564 -2.93194,4.44152 -5.21875,5.6875 -1.55397,0.84668 -2.32196,1.01485 -4.8125,1.09375 -3.84431,0.12183 -5.59586,-0.47451 -8.1875,-2.75 -1.67501,-1.47068 -2.72775,-3.21476 -3.4375,-5.65625 -0.77531,-2.66694 -0.50259,-5.20173 0.875,-8 2.12254,-4.31151 6.17706,-6.46474 10.25,-6.4375 z m -48.9375,0.0625 c 4.54064,0 8.26415,2.33921 10.3125,6.5 0.98285,1.99645 1.132,2.64014 1.125,4.90625 -0.0129,4.38077 -2.26803,8.17976 -6.125,10.28125 -1.54265,0.84051 -2.30888,1.00285 -4.78125,1.09375 -1.88166,0.0692 -3.41791,-0.0447 -4.21875,-0.34375 -4.78374,-1.78636 -7.74601,-6.00329 -7.75,-11 -0.002,-2.2515 0.14107,-2.93887 1.125,-4.9375 2.05317,-4.17062 5.76759,-6.5 10.3125,-6.5 z"
         style="fill:#ffffff;fill-opacity:1;stroke:none" />
      <text
         sodipodi:linespacing="125%"
         id="text3137"
         y="836.95062"
         x="171.39807"
         style="font-size:22.69813728px;font-style:normal;font-variant:normal;font-weight:bold;font-stretch:condensed;line-height:125%;letter-spacing:0px;word-spacing:0px;fill:#ffffff;fill-opacity:1;stroke:none;font-family:Liberation Sans Narrow;-inkscape-font-specification:Liberation Sans Narrow Bold Condensed"
         xml:space="preserve"><tspan
           style="font-style:normal;font-variant:normal;font-weight:normal;font-stretch:normal;text-align:center;text-anchor:middle;font-family:Droid Sans;-inkscape-font-specification:Droid Sans"
           y="836.95062"
           x="171.39807"
           id="tspan3139"
           sodipodi:role="line"><tspan
   id="tspan3141"
   style="font-weight:bold;text-align:center;text-anchor:middle">Google</tspan> Cardboard</tspan><tspan
           id="tspan3143"
           style="font-size:14px;font-style:normal;font-variant:normal;font-weight:normal;font-stretch:normal;text-align:center;text-anchor:middle;font-family:Droid Sans;-inkscape-font-specification:Droid Sans"
           y="856.65344"
           x="171.39807"
           sodipodi:role="line">(with Gyro)</tspan></text>
    </g>
    <flowRoot
       xml:space="preserve"
       id="flowRoot3145"
       style="fill:black;stroke:none;stroke-opacity:1;stroke-width:1px;stroke-linejoin:miter;stroke-linecap:butt;fill-opacity:1;font-family:Liberation Sans Narrow;font-style:normal;font-weight:bold;font-size:12px;line-height:125%;letter-spacing:0px;word-spacing:0px;-inkscape-font-specification:Liberation Sans Narrow Bold Condensed;font-stretch:condensed;font-variant:normal"><flowRegion
         id="flowRegion3147"><rect
           id="rect3149"
           width="125"
           height="42.142857"
           x="81.428574"
           y="252.14285" /></flowRegion><flowPara
         id="flowPara3151"></flowPara></flowRoot>    <g
       id="cardboard_nogyro"
       inkscape:label="#g3224">
      <path
         style="fill:#ffffff;fill-opacity:1;stroke:none"
         d="m 119.62455,895.31342 c -0.2604,0.0375 -0.48676,0.0818 -0.6875,0.125 l -1,1.03125 -0.96875,0.9375 c -0.0694,0.12676 -0.13364,0.2519 -0.1875,0.375 l 0,28.90625 0,28.96875 c 0.0486,0.111 0.0949,0.22953 0.15625,0.34375 l 0.71875,0.75 c 0.47706,0.51331 1.18085,1.06089 1.5625,1.21875 0.38164,0.15787 9.06619,0.3004 19.3125,0.3125 13.34744,-10e-5 17.46849,-0.003 18.9375,-0.25 l 0.5625,-0.53125 c 0.6783,-0.61564 1.25997,-2.24639 2.78125,-7.71875 3.12318,-11.23483 5.18542,-14.45775 9.5,-14.96875 3.67588,-0.43535 6.42633,1.18324 8.28125,4.84375 1.25206,2.47083 1.98992,4.68478 3.8125,11.53125 0.97901,3.67764 1.60866,5.57147 2.09375,6.28125 0.77072,0.49286 2.31949,0.66145 5.0625,0.75 2.77006,0.0431 7.00362,0.039 14.71875,0 l 18.78125,-0.0937 c 0.0184,-0.005 0.0445,0.005 0.0625,0 l 0.0625,-0.0312 1.0625,-1.09375 0.96875,-0.96875 c 0.0694,-0.12676 0.13364,-0.2519 0.1875,-0.375 l 0,-28.9375 0,-28.9375 c -0.0539,-0.1231 -0.11809,-0.24824 -0.1875,-0.375 l -0.96875,-0.9375 -1,-1.03125 c -0.20325,-0.0438 -0.45414,-0.087 -0.71875,-0.125 l -51.4375,0 -51.46875,0 z m 75.9375,19.90625 c 4.07293,0.0272 8.17592,2.22251 10.3125,6.5625 0.98392,1.99863 1.127,2.686 1.125,4.9375 -0.002,2.08848 -0.17633,3.0019 -0.90625,4.5625 -1.18597,2.53564 -2.93194,4.44152 -5.21875,5.6875 -1.55397,0.84668 -2.32196,1.01485 -4.8125,1.09375 -3.84431,0.12183 -5.59586,-0.47451 -8.1875,-2.75 -1.67501,-1.47068 -2.72775,-3.21476 -3.4375,-5.65625 -0.77531,-2.66694 -0.50259,-5.20173 0.875,-8 2.12254,-4.31151 6.17706,-6.46474 10.25,-6.4375 z m -48.9375,0.0625 c 4.54064,0 8.26415,2.33921 10.3125,6.5 0.98285,1.99645 1.132,2.64014 1.125,4.90625 -0.0129,4.38077 -2.26803,8.17976 -6.125,10.28125 -1.54265,0.84051 -2.30888,1.00285 -4.78125,1.09375 -1.88166,0.0692 -3.41791,-0.0447 -4.21875,-0.34375 -4.78374,-1.78636 -7.74601,-6.00329 -7.75,-11 -0.002,-2.2515 0.14107,-2.93887 1.125,-4.9375 2.05317,-4.17062 5.76759,-6.5 10.3125,-6.5 z"
         id="path3135"
         inkscape:connector-curvature="0" />
      <text
         xml:space="preserve"
         style="font-size:22.69813728px;font-style:normal;font-variant:normal;font-weight:bold;font-stretch:condensed;line-height:125%;letter-spacing:0px;word-spacing:0px;fill:#ffffff;fill-opacity:1;stroke:none;font-family:Liberation Sans Narrow;-inkscape-font-specification:Liberation Sans Narrow Bold Condensed"
         x="171.39807"
         y="986.95062"
         id="text3153"
         sodipodi:linespacing="125%"><tspan
           sodipodi:role="line"
           id="tspan3155"
           x="171.39807"
           y="986.95062"
           style="font-style:normal;font-variant:normal;font-weight:normal;font-stretch:normal;text-align:center;text-anchor:middle;font-family:Droid Sans;-inkscape-font-specification:Droid Sans"><tspan
   style="font-weight:bold;text-align:center;text-anchor:middle"
   id="tspan3157">Google</tspan> Cardboard</tspan><tspan
           sodipodi:role="line"
           x="171.39807"
           y="1006.6534"
           style="font-size:14px;font-style:normal;font-variant:normal;font-weight:normal;font-stretch:normal;text-align:center;text-anchor:middle;font-family:Droid Sans;-inkscape-font-specification:Droid Sans"
           id="tspan3159">(no Gyro)</tspan></text>
    </g>
    <g
       id="fullscreen"
       inkscape:label="#g3198">
      <g
         transform="matrix(0.79274456,0,0,0.79274456,235.02089,201.85163)"
         id="g3130">
        <rect
           style="fill:#ffffff;fill-opacity:1;stroke:none"
           id="rect3124"
           width="144.87024"
           height="87.88327"
           x="218.78468"
           y="870.53473" />
        <rect
           y="875.58551"
           x="224.04465"
           height="77.781746"
           width="134.3503"
           id="rect3126"
           style="fill:#000000;fill-opacity:1;stroke:none" />
        <rect
           y="469.13086"
           x="828.41711"
           height="6.2474208"
           width="29.079432"
           id="rect3128"
           style="fill:#ffffff;fill-opacity:1;stroke:none"
           transform="matrix(0.76992719,0.63813175,-0.65831184,0.75274532,0,0)" />
      </g>
      <text
         sodipodi:linespacing="125%"
         id="text3161"
         y="993.01154"
         x="465.70093"
         style="font-size:22.69813728px;font-style:normal;font-variant:normal;font-weight:bold;font-stretch:condensed;line-height:125%;letter-spacing:0px;word-spacing:0px;fill:#ffffff;fill-opacity:1;stroke:none;font-family:Liberation Sans Narrow;-inkscape-font-specification:Liberation Sans Narrow Bold Condensed"
         xml:space="preserve"><tspan
           id="tspan3167"
           style="font-size:22.69813728px;font-style:normal;font-variant:normal;font-weight:normal;font-stretch:normal;text-align:center;text-anchor:middle;font-family:Droid Sans;-inkscape-font-specification:Droid Sans"
           y="993.01154"
           x="465.70093"
           sodipodi:role="line">Fullscreen</tspan></text>
    </g>
    <g
       id="crosseyed"
       inkscape:label="#g3206">
      <g
         transform="translate(99.620027,-18.254006)"
         id="g3118">
        <path
           transform="matrix(0.49083168,0,0,0.64509306,176.65001,667.19408)"
           d="m 390.92903,196.14714 c 0,26.77881 -28.94468,48.48732 -64.64976,48.48732 -35.70508,0 -64.64977,-21.70851 -64.64977,-48.48732 0,-26.77881 28.94469,-48.48732 64.64977,-48.48732 35.70508,0 64.64976,21.70851 64.64976,48.48732 z"
           sodipodi:ry="48.487324"
           sodipodi:rx="64.649765"
           sodipodi:cy="196.14714"
           sodipodi:cx="326.27927"
           id="path3110"
           style="fill:#ffffff;fill-opacity:1;stroke:none"
           sodipodi:type="arc" />
        <path
           sodipodi:type="arc"
           style="fill:#ffffff;fill-opacity:1;stroke:none"
           id="path3112"
           sodipodi:cx="326.27927"
           sodipodi:cy="196.14714"
           sodipodi:rx="64.649765"
           sodipodi:ry="48.487324"
           d="m 390.92903,196.14714 c 0,26.77881 -28.94468,48.48732 -64.64976,48.48732 -35.70508,0 -64.64977,-21.70851 -64.64977,-48.48732 0,-26.77881 28.94469,-48.48732 64.64977,-48.48732 35.70508,0 64.64976,21.70851 64.64976,48.48732 z"
           transform="matrix(0.49083168,0,0,0.64509306,235.58115,667.19408)" />
        <path
           transform="matrix(0.89752076,0,0,0.89752076,26.729773,591.84207)"
           d="m 371.73615,231.50247 c 0,6.6947 -5.42713,12.12183 -12.12183,12.12183 -6.6947,0 -12.12183,-5.42713 -12.12183,-12.12183 0,-6.6947 5.42713,-12.12183 12.12183,-12.12183 6.6947,0 12.12183,5.42713 12.12183,12.12183 z"
           sodipodi:ry="12.121831"
           sodipodi:rx="12.121831"
           sodipodi:cy="231.50247"
           sodipodi:cx="359.61432"
           id="path3114"
           style="fill:#000000;fill-opacity:1;stroke:none"
           sodipodi:type="arc" />
        <path
           sodipodi:type="arc"
           style="fill:#000000;fill-opacity:1;stroke:none"
           id="path3116"
           sodipodi:cx="359.61432"
           sodipodi:cy="231.50247"
           sodipodi:rx="12.121831"
           sodipodi:ry="12.121831"
           d="m 371.73615,231.50247 c 0,6.6947 -5.42713,12.12183 -12.12183,12.12183 -6.6947,0 -12.12183,-5.42713 -12.12183,-12.12183 0,-6.6947 5.42713,-12.12183 12.12183,-12.12183 6.6947,0 12.12183,5.42713 12.12183,12.12183 z"
           transform="matrix(0.89752076,0,0,0.89752076,58.461923,592.7487)" />
      </g>
      <text
         xml:space="preserve"
         style="font-size:22.69813728px;font-style:normal;font-variant:normal;font-weight:bold;font-stretch:condensed;line-height:125%;letter-spacing:0px;word-spacing:0px;fill:#ffffff;fill-opacity:1;stroke:none;font-family:Liberation Sans Narrow;-inkscape-font-specification:Liberation Sans Narrow Bold Condensed"
         x="466.1886"
         y="837.96075"
         id="text3171"
         sodipodi:linespacing="125%"><tspan
           sodipodi:role="line"
           id="tspan3173"
           x="466.1886"
           y="837.96075"
           style="font-style:normal;font-variant:normal;font-weight:normal;font-stretch:normal;text-align:center;text-anchor:middle;font-family:Droid Sans;-inkscape-font-specification:Droid Sans"><tspan
   id="tspan3179"
   style="font-weight:bold">Cross</tspan> Eyed</tspan><tspan
           sodipodi:role="line"
           x="466.1886"
           y="866.33344"
           style="font-size:14px;font-style:normal;font-variant:normal;font-weight:normal;font-stretch:normal;text-align:center;text-anchor:middle;font-family:Droid Sans;-inkscape-font-specification:Droid Sans"
           id="tspan3177" /></text>
    </g>
  </g>
</svg>
